<svg width="32" height="32" viewBox="0 0 32 32" fill="none" xmlns="http://www.w3.org/2000/svg">
<g clip-path="url(#clip0_79_784)">
<path d="M25.333 11.6133L18.2224 6.08267C17.5984 5.59722 16.8303 5.33365 16.0397 5.33365C15.2491 5.33365 14.4811 5.59722 13.857 6.08267L6.74505 11.6133C6.31764 11.9457 5.97184 12.3714 5.73405 12.8578C5.49627 13.3442 5.37279 13.8786 5.37305 14.42V24.02C5.37305 24.7273 5.654 25.4055 6.1541 25.9056C6.65419 26.4057 7.33247 26.6867 8.03971 26.6867H24.0397C24.747 26.6867 25.4252 26.4057 25.9253 25.9056C26.4254 25.4055 26.7064 24.7273 26.7064 24.02V14.42C26.7064 13.3227 26.1997 12.2867 25.333 11.6133Z" stroke="#FCFDFD" stroke-width="2" stroke-linecap="round" stroke-linejoin="round"/>
</g>
<defs>
<clipPath id="clip0_79_784">
<rect width="32" height="32" fill="white"/>
</clipPath>
</defs>
</svg>
