<svg width="26" height="24" viewBox="0 0 26 24" fill="none" xmlns="http://www.w3.org/2000/svg">
<path d="M23.8017 1L14.4414 7.96314L16.1822 3.85375L23.8017 1Z" fill="#E17726" stroke="#E17726" stroke-linecap="round" stroke-linejoin="round"/>
<path d="M2.16992 1L11.4731 8.02022L9.81796 3.85375L2.16992 1Z" fill="#E27625" stroke="#E27625" stroke-linecap="round" stroke-linejoin="round"/>
<path d="M20.4341 17.1237L17.9229 20.9477L23.2879 22.4316L24.8004 17.2093L20.4341 17.1237Z" fill="#E27625" stroke="#E27625" stroke-linecap="round" stroke-linejoin="round"/>
<path d="M1.19971 17.2093L2.71219 22.4316L8.0487 20.9477L5.56594 17.1237L1.19971 17.2093Z" fill="#E27625" stroke="#E27625" stroke-linecap="round" stroke-linejoin="round"/>
<path d="M7.76324 10.6742L6.2793 12.9287L11.5587 13.157L11.3875 7.44946L7.76324 10.6742Z" fill="#E27625" stroke="#E27625" stroke-linecap="round" stroke-linejoin="round"/>
<path d="M18.2364 10.6742L14.5551 7.3924L14.4409 13.157L19.7203 12.9287L18.2364 10.6742Z" fill="#E27625" stroke="#E27625" stroke-linecap="round" stroke-linejoin="round"/>
<path d="M8.04883 20.9477L11.245 19.4066L8.47689 17.2378L8.04883 20.9477Z" fill="#E27625" stroke="#E27625" stroke-linecap="round" stroke-linejoin="round"/>
<path d="M14.7549 19.4066L17.9225 20.9477L17.4945 17.2378L14.7549 19.4066Z" fill="#E27625" stroke="#E27625" stroke-linecap="round" stroke-linejoin="round"/>
<path d="M17.9225 20.9477L14.7549 19.4066L15.0117 21.4613L14.9832 22.346L17.9225 20.9477Z" fill="#D5BFB2" stroke="#D5BFB2" stroke-linecap="round" stroke-linejoin="round"/>
<path d="M8.04883 20.9477L11.0167 22.346L10.9882 21.4613L11.245 19.4066L8.04883 20.9477Z" fill="#D5BFB2" stroke="#D5BFB2" stroke-linecap="round" stroke-linejoin="round"/>
<path d="M11.0739 15.868L8.41992 15.0975L10.2749 14.2414L11.0739 15.868Z" fill="#233447" stroke="#233447" stroke-linecap="round" stroke-linejoin="round"/>
<path d="M14.9263 15.868L15.6968 14.2414L17.5803 15.0975L14.9263 15.868Z" fill="#233447" stroke="#233447" stroke-linecap="round" stroke-linejoin="round"/>
<path d="M8.04868 20.9477L8.50527 17.1237L5.56592 17.2093L8.04868 20.9477Z" fill="#CC6228" stroke="#CC6228" stroke-linecap="round" stroke-linejoin="round"/>
<path d="M17.4946 17.1237L17.9227 20.9477L20.434 17.2093L17.4946 17.1237Z" fill="#CC6228" stroke="#CC6228" stroke-linecap="round" stroke-linejoin="round"/>
<path d="M19.7208 12.9286L14.4414 13.157L14.9265 15.868L15.6971 14.2414L17.5805 15.0975L19.7208 12.9286Z" fill="#CC6228" stroke="#CC6228" stroke-linecap="round" stroke-linejoin="round"/>
<path d="M8.41961 15.0975L10.2745 14.2414L11.0736 15.868L11.5587 13.157L6.2793 12.9286L8.41961 15.0975Z" fill="#CC6228" stroke="#CC6228" stroke-linecap="round" stroke-linejoin="round"/>
<path d="M6.27979 12.9286L8.47717 17.2378L8.42009 15.0975L6.27979 12.9286Z" fill="#E27525" stroke="#E27525" stroke-linecap="round" stroke-linejoin="round"/>
<path d="M17.5807 15.0975L17.4951 17.2378L19.721 12.9286L17.5807 15.0975Z" fill="#E27525" stroke="#E27525" stroke-linecap="round" stroke-linejoin="round"/>
<path d="M11.5594 13.1569L11.0742 15.868L11.6735 19.0927L11.8162 14.8406L11.5594 13.1569Z" fill="#E27525" stroke="#E27525" stroke-linecap="round" stroke-linejoin="round"/>
<path d="M14.4414 13.1569L14.1846 14.8406L14.2987 19.0927L14.9265 15.868L14.4414 13.1569Z" fill="#E27525" stroke="#E27525" stroke-linecap="round" stroke-linejoin="round"/>
<path d="M14.9262 15.868L14.2983 19.0928L14.7549 19.4067L17.4945 17.2378L17.5801 15.0975L14.9262 15.868Z" fill="#F5841F" stroke="#F5841F" stroke-linecap="round" stroke-linejoin="round"/>
<path d="M8.41992 15.0975L8.477 17.2378L11.2451 19.4067L11.6732 19.0928L11.0739 15.868L8.41992 15.0975Z" fill="#F5841F" stroke="#F5841F" stroke-linecap="round" stroke-linejoin="round"/>
<path d="M14.9834 22.346L15.012 21.4614L14.7551 21.2616H11.2165L10.9882 21.4614L11.0167 22.346L8.04883 20.9477L9.07618 21.8038L11.1879 23.2592H14.7837L16.8954 21.8038L17.9228 20.9477L14.9834 22.346Z" fill="#C0AC9D" stroke="#C0AC9D" stroke-linecap="round" stroke-linejoin="round"/>
<path d="M14.7552 19.4067L14.2986 19.0928H11.6732L11.2451 19.4067L10.9883 21.4614L11.2166 21.2616H14.7552L15.0121 21.4614L14.7552 19.4067Z" fill="#161616" stroke="#161616" stroke-linecap="round" stroke-linejoin="round"/>
<path d="M24.2008 8.41974L24.9998 4.56718L23.8013 1L14.7549 7.73484L18.2365 10.6742L23.1449 12.1011L24.2293 10.8454L23.7727 10.503L24.5147 9.81808L23.9439 9.36147L24.6859 8.79073L24.2008 8.41974Z" fill="#763E1A" stroke="#763E1A" stroke-linecap="round" stroke-linejoin="round"/>
<path d="M1 4.56718L1.79905 8.41974L1.28537 8.79073L2.02735 9.36147L1.4566 9.81808L2.22711 10.503L1.74197 10.8454L2.8264 12.1011L7.76338 10.6742L11.2449 7.73484L2.17004 1L1 4.56718Z" fill="#763E1A" stroke="#763E1A" stroke-linecap="round" stroke-linejoin="round"/>
<path d="M23.145 12.1011L18.2366 10.6742L19.7206 12.9287L17.4946 17.2378L20.434 17.2093H24.8002L23.145 12.1011Z" fill="#F5841F" stroke="#F5841F" stroke-linecap="round" stroke-linejoin="round"/>
<path d="M7.76332 10.6742L2.82634 12.1011L1.19971 17.2093H5.56594L8.47676 17.2378L6.27938 12.9287L7.76332 10.6742Z" fill="#F5841F" stroke="#F5841F" stroke-linecap="round" stroke-linejoin="round"/>
<path d="M14.4409 13.157L14.7548 7.73486L16.1817 3.85376H9.81787L11.2447 7.73486L11.5587 13.157L11.6728 14.8692V19.0928H14.2983V14.8692L14.4409 13.157Z" fill="#F5841F" stroke="#F5841F" stroke-linecap="round" stroke-linejoin="round"/>
</svg>
